<?xml version="1.0" encoding="UTF-8" standalone="no"?>
<!-- Created with Inkscape (http://www.inkscape.org/) -->

<svg
   width="952.32147"
   height="952.32147"
   viewBox="0 0 952.32148 952.32148"
   version="1.1"
   id="svg1"
   inkscape:version="1.3.2 (091e20e, 2023-11-25)"
   sodipodi:docname="plus-sign.svg"
   xmlns:inkscape="http://www.inkscape.org/namespaces/inkscape"
   xmlns:sodipodi="http://sodipodi.sourceforge.net/DTD/sodipodi-0.dtd"
   xmlns="http://www.w3.org/2000/svg"
   xmlns:svg="http://www.w3.org/2000/svg">
  <sodipodi:namedview
     id="namedview1"
     pagecolor="#ffffff"
     bordercolor="#000000"
     borderopacity="0.25"
     inkscape:showpageshadow="2"
     inkscape:pageopacity="0.0"
     inkscape:pagecheckerboard="0"
     inkscape:deskcolor="#d1d1d1"
     inkscape:document-units="px"
     inkscape:zoom="0.4273399"
     inkscape:cx="491.4121"
     inkscape:cy="684.46686"
     inkscape:window-width="1776"
     inkscape:window-height="1212"
     inkscape:window-x="2020"
     inkscape:window-y="71"
     inkscape:window-maximized="0"
     inkscape:current-layer="layer1" />
  <defs
     id="defs1" />
  <g
     inkscape:label="Ebene 1"
     inkscape:groupmode="layer"
     id="layer1"
     transform="translate(-71.654704,-533.57462)">
    <path
       id="rect2"
       style="stroke:#000000;stroke-width:74.8;stroke-dasharray:none;stroke-opacity:1;fill-opacity:1;fill:none"
       d="m 547.81641,570.97461 c -81.02442,0 -146.25391,65.22949 -146.25391,146.25391 V 863.48047 H 255.30859 c -81.02441,0 -146.2539,65.22949 -146.2539,146.25393 0,81.0244 65.22949,146.2539 146.2539,146.2539 H 401.5625 v 146.2539 c 0,81.0244 65.22949,146.2539 146.25391,146.2539 81.02441,0 146.25195,-65.2295 146.25195,-146.2539 v -146.2539 h 146.25391 c 81.02441,0 146.2539,-65.2295 146.2539,-146.2539 0,-81.02444 -65.22949,-146.25393 -146.2539,-146.25393 H 694.06836 V 717.22852 c 0,-81.02442 -65.22754,-146.25391 -146.25195,-146.25391 z" />
  </g>
</svg>
